<svg width="100" height="100" xmlns="http://www.w3.org/2000/svg">
  <!-- 外圈 -->
  <circle cx="50" cy="50" r="45" fill="none" stroke="#c62f2f" stroke-width="2" />
  
  <!-- 内圈 -->
  <circle cx="50" cy="50" r="38" fill="none" stroke="#5d7896" stroke-width="1.5" />
  
  <!-- 简约红白分割设计 -->
  <path d="M50,12 A38,38 0 0,1 88,50 A38,38 0 0,1 50,88 A38,38 0 0,1 12,50 A38,38 0 0,1 50,12 Z" fill="none" />
  <path d="M50,12 A38,38 0 0,1 88,50 A38,38 0 0,1 50,88 Z" fill="#c62f2f" fill-opacity="0.1" />
  <path d="M50,12 A38,38 0 0,0 12,50 A38,38 0 0,0 50,88 Z" fill="#5d7896" fill-opacity="0.1" />
  
  <!-- 中心文字 - 英文 -->
  <text x="50" y="48" font-family="STZhongsong, SimSun, serif" font-size="12" text-anchor="middle" fill="#c62f2f">ceremony</text>
  
  <!-- 中心文字 - 中文（可选择显示其中一个） -->
  <!-- <text x="50" y="48" font-family="STZhongsong, SimSun, serif" font-size="16" text-anchor="middle" fill="#c62f2f">礼仪</text> -->
  
  <!-- 装饰点缀 -->
  <circle cx="30" cy="50" r="3" fill="#c62f2f" fill-opacity="0.6" />
  <circle cx="70" cy="50" r="3" fill="#5d7896" fill-opacity="0.6" />
  <circle cx="50" cy="30" r="3" fill="#c62f2f" fill-opacity="0.6" />
  <circle cx="50" cy="70" r="3" fill="#5d7896" fill-opacity="0.6" />
  
  <!-- 红白事文字 -->
  <text x="50" y="65" font-family="STZhongsong, SimSun, serif" font-size="10" text-anchor="middle" fill="#333333">红白事</text>
  
  <!-- 国彦标签 -->
  <text x="50" y="78" font-family="STZhongsong, SimSun, serif" font-size="8" text-anchor="middle" fill="#333333">国彦</text>
</svg>